<svg xmlns="http://www.w3.org/2000/svg" viewBox="0 0 1280 720"><rect width="1280" height="720" rx="24" fill="#080d13"/><rect x="35" y="35" width="1210" height="650" rx="20" fill="#0c141c" stroke="#294253"/><text x="70" y="95" fill="#38bdf8" font-family="Arial" font-size="20" font-weight="700">FULL STACK CHAT APPLICATION · KUBERNETES</text><g font-family="Arial" text-anchor="middle"><rect x="90" y="250" width="220" height="130" rx="16" fill="#101a23" stroke="#38546a"/><text x="200" y="302" fill="#e6edf3" font-size="24" font-weight="700">Frontend</text><text x="200" y="338" fill="#8293a3" font-size="15">Kubernetes Deployment</text><rect x="530" y="250" width="220" height="130" rx="16" fill="#101a23" stroke="#38546a"/><text x="640" y="302" fill="#e6edf3" font-size="24" font-weight="700">Backend</text><text x="640" y="338" fill="#8293a3" font-size="15">Kubernetes Deployment</text><rect x="970" y="250" width="220" height="130" rx="16" fill="#101a23" stroke="#38546a"/><text x="1080" y="302" fill="#e6edf3" font-size="24" font-weight="700">Database</text><text x="1080" y="338" fill="#8293a3" font-size="15">StatefulSet + PV/PVC</text><path d="M310 315h220M750 315h220" stroke="#38bdf8" stroke-width="4"/><path d="M510 300l15 15-15 15M950 300l15 15-15 15" fill="#38bdf8"/><rect x="385" y="480" width="510" height="100" rx="16" fill="#0e1d2a" stroke="#38bdf8" stroke-width="2"/><text x="640" y="522" fill="#38bdf8" font-size="22" font-weight="700">Jenkins + Docker</text><text x="640" y="553" fill="#8293a3" font-size="14">Build images · automate deployment</text></g></svg>
